<svg width="16" height="16" viewBox="0 0 16 16" fill="none" xmlns="http://www.w3.org/2000/svg">
<path d="M8.0013 5.1665C8.0013 4.06193 8.89673 3.1665 10.0013 3.1665H13.8346C14.3869 3.1665 14.8346 3.61422 14.8346 4.1665V11.8332C14.8346 12.3855 14.3869 12.8332 13.8346 12.8332H10.186C9.73236 12.8332 9.28771 12.9426 8.90185 13.1811C8.51599 13.4196 8.20416 13.7608 8.0013 14.1665M8.0013 5.1665C8.0013 4.06193 7.10587 3.1665 6.0013 3.1665H2.16797C1.61568 3.1665 1.16797 3.61422 1.16797 4.1665V11.8332C1.16797 12.3855 1.61568 12.8332 2.16797 12.8332H5.81663C6.27024 12.8332 6.71489 12.9426 7.10075 13.1811C7.48661 13.4196 7.79844 13.7608 8.0013 14.1665M8.0013 5.1665V14.1665" stroke="#4E6EC1" stroke-width="1.5" stroke-linecap="round" stroke-linejoin="round"/>
</svg>
