<svg width="24" height="24" viewBox="0 0 24 24" fill="none" xmlns="http://www.w3.org/2000/svg">
<g clip-path="url(#clip0_28291_35598)">
<path fill-rule="evenodd" clip-rule="evenodd" d="M24.6126 11.2784C25.2013 11.8137 25.5531 12.561 25.5908 13.3557C25.6285 14.1505 25.3489 14.9276 24.8135 15.5163L23.8904 16.5313C23.3118 17.1675 22.3736 17.3281 21.616 16.9215L17.6004 14.7631C17.2753 14.5885 17.009 14.3218 16.8348 13.9965C16.6606 13.6712 16.5862 13.3017 16.6211 12.9343L16.7734 11.3251C16.7895 11.1573 16.6996 11.0362 16.5978 10.995C15.0826 10.3799 13.4518 10.1014 11.8183 10.1788C10.1848 10.2562 8.58766 10.6878 7.13744 11.4435C7.04003 11.4942 6.96257 11.6224 6.99382 11.7887L7.29773 13.3763C7.36717 13.7387 7.32811 14.1136 7.18546 14.4539C7.0428 14.7943 6.80288 15.0849 6.49577 15.2895L2.70237 17.8182C1.98661 18.2945 1.03748 18.2234 0.400517 17.6441L-0.613746 16.7217C-1.20236 16.1864 -1.55422 15.4391 -1.59189 14.6444C-1.62957 13.8496 -1.34998 13.0724 -0.814649 12.4838L0.699218 10.8193C6.55149 4.3845 16.5133 3.91225 22.9481 9.76452L24.6126 11.2784Z" fill="url(#paint0_linear_28291_35598)"/>
</g>
<defs>
<linearGradient id="paint0_linear_28291_35598" x1="-2.12998" y1="29.5358" x2="27.5352" y2="28.1295" gradientUnits="userSpaceOnUse">
<stop stop-color="#FF8888"/>
<stop offset="1" stop-color="#F05F5F"/>
</linearGradient>
<clipPath id="clip0_28291_35598">
<rect width="24" height="24" fill="white"/>
</clipPath>
</defs>
</svg>
