<svg width="24" height="24" viewBox="0 0 24 24" fill="none" xmlns="http://www.w3.org/2000/svg">
<path d="M4.73663 3C3.79321 3 2.97164 3.76598 3.01745 4.76901C3.14154 7.48588 3.91633 10.1597 5.28537 12.5194C6.77407 15.0853 8.91441 17.2256 11.4803 18.7143C13.862 20.0961 16.502 20.8246 19.2094 20.9719C20.2175 21.0267 20.9997 20.2049 20.9997 19.25V15.7482C20.9997 14.9719 20.4883 14.2884 19.7435 14.0693L16.7942 13.2019C16.1675 13.0176 15.4903 13.1976 15.0379 13.6689L14.1605 14.5828C14.0777 14.6691 13.975 14.6689 13.9156 14.6348C12.0242 13.5503 10.4494 11.9755 9.36486 10.0841C9.33081 10.0248 9.33062 9.92199 9.4169 9.83917L10.3309 8.96176C10.8021 8.50939 10.9821 7.83222 10.7978 7.20555L9.93036 4.25621C9.71131 3.51144 9.02779 3 8.25147 3H4.73663Z" fill="#26B85D"/>
</svg>
