<svg width="80" height="81" viewBox="0 0 80 81" fill="none" xmlns="http://www.w3.org/2000/svg">
<rect y="0.5" width="80" height="80" rx="40" fill="#81C784"/>
<path d="M29.4027 50.696C28.04 50.696 26.808 50.4627 25.7067 49.996C24.624 49.5293 23.7653 48.8573 23.1307 47.98C22.496 47.1027 22.1693 46.0667 22.1507 44.872H26.3507C26.4067 45.6747 26.6867 46.3093 27.1907 46.776C27.7133 47.2427 28.4227 47.476 29.3187 47.476C30.2333 47.476 30.952 47.2613 31.4747 46.832C31.9973 46.384 32.2587 45.8053 32.2587 45.096C32.2587 44.5173 32.0813 44.0413 31.7267 43.668C31.372 43.2947 30.924 43.0053 30.3827 42.8C29.86 42.576 29.132 42.3333 28.1987 42.072C26.9293 41.6987 25.8933 41.3347 25.0907 40.98C24.3067 40.6067 23.6253 40.056 23.0467 39.328C22.4867 38.5813 22.2067 37.592 22.2067 36.36C22.2067 35.2027 22.496 34.1947 23.0747 33.336C23.6533 32.4773 24.4653 31.824 25.5107 31.376C26.556 30.9093 27.7507 30.676 29.0947 30.676C31.1107 30.676 32.744 31.1707 33.9947 32.16C35.264 33.1307 35.964 34.4933 36.0947 36.248H31.7827C31.7453 35.576 31.456 35.0253 30.9147 34.596C30.392 34.148 29.692 33.924 28.8147 33.924C28.0493 33.924 27.4333 34.12 26.9667 34.512C26.5187 34.904 26.2947 35.4733 26.2947 36.22C26.2947 36.7427 26.4627 37.1813 26.7987 37.536C27.1533 37.872 27.5827 38.152 28.0867 38.376C28.6093 38.5813 29.3373 38.824 30.2707 39.104C31.54 39.4773 32.576 39.8507 33.3787 40.224C34.1813 40.5973 34.872 41.1573 35.4507 41.904C36.0293 42.6507 36.3187 43.6307 36.3187 44.844C36.3187 45.8893 36.048 46.86 35.5067 47.756C34.9653 48.652 34.172 49.3707 33.1267 49.912C32.0813 50.4347 30.84 50.696 29.4027 50.696ZM38.7652 40.7C38.7652 38.7773 39.1945 37.06 40.0532 35.548C40.9305 34.0173 42.1158 32.832 43.6092 31.992C45.1212 31.1333 46.8105 30.704 48.6772 30.704C50.8612 30.704 52.7745 31.264 54.4172 32.384C56.0598 33.504 57.2078 35.0533 57.8612 37.032H53.3532C52.9052 36.0987 52.2705 35.3987 51.4492 34.932C50.6465 34.4653 49.7132 34.232 48.6492 34.232C47.5105 34.232 46.4932 34.5027 45.5972 35.044C44.7198 35.5667 44.0292 36.3133 43.5252 37.284C43.0398 38.2547 42.7972 39.3933 42.7972 40.7C42.7972 41.988 43.0398 43.1267 43.5252 44.116C44.0292 45.0867 44.7198 45.8427 45.5972 46.384C46.4932 46.9067 47.5105 47.168 48.6492 47.168C49.7132 47.168 50.6465 46.9347 51.4492 46.468C52.2705 45.9827 52.9052 45.2733 53.3532 44.34H57.8612C57.2078 46.3373 56.0598 47.896 54.4172 49.016C52.7932 50.1173 50.8798 50.668 48.6772 50.668C46.8105 50.668 45.1212 50.248 43.6092 49.408C42.1158 48.5493 40.9305 47.364 40.0532 45.852C39.1945 44.34 38.7652 42.6227 38.7652 40.7Z" fill="white"/>
</svg>
